<svg width="216" height="79" viewBox="0 0 216 79" xmlns="http://www.w3.org/2000/svg">
  <path d="M20.89 47.502V66.125H78.545V30.193H89.271L55.304 8.125 9.271 47.502H20.89Z" fill="#007BFF"/>
  <path d="M99.223 66.445c-1.75 0-3.424-.246-5.024-.736-1.6-.512-2.869-1.162-3.808-1.952l1.44-3.232c.897.704 2.006 1.291 3.329 1.76 1.323.47 2.677.704 4.064.704 1.173 0 2.123-.128 2.849-.384.725-.256 1.258-.597 1.6-1.024.341-.448.512-.95.512-1.504 0-.683-.245-1.227-.736-1.632-.49-.427-1.13-.758-1.919-.992-.768-.256-1.633-.49-2.593-.704-.939-.213-1.889-.458-2.849-.736-.939-.299-1.803-.672-2.592-1.12-.768-.47-1.397-1.088-1.888-1.856-.49-.768-.736-1.749-.736-2.944 0-1.216.32-2.325.96-3.328.661-1.024 1.653-1.835 2.976-2.432 1.344-.618 3.04-.928 5.088-.928 1.344 0 2.677.171 4 .512 1.323.341 2.475.832 3.457 1.472l-1.312 3.232c-1.003-.598-2.038-1.035-3.104-1.312-1.067-.299-2.091-.448-3.072-.448-1.152 0-2.091.139-2.816.416-.704.277-1.227.64-1.568 1.088-.32.448-.48.96-.48 1.536 0 .683.235 1.237.704 1.664.49.405 1.12.725 1.888.96.789.235 1.664.47 2.624.704.96.213 1.909.459 2.848.736.96.277 1.824.64 2.592 1.088.789.448 1.418 1.056 1.888 1.824.49.768.736 1.739.736 2.912 0 1.195-.331 2.304-.992 3.328-.64 1.003-1.632 1.813-2.976 2.432-1.344.597-3.04.896-5.088.896Z" fill="#000"/>
  <path d="M113.044 66.125V43.725h3.424l9.792 16.352h-1.792l9.632-16.352h3.424l.032 22.4h-3.936l-.032-16.224h.832l-8.192 13.664h-1.856L116.052 49.9h.96v16.224h-3.968Z" fill="#000"/>
  <path d="M141.078 66.125l10.08-22.4h4.096l10.112 22.4h-4.352l-8.672-20.192h1.664l-8.64 20.192h-4.288Zm4.64-5.184 1.12-3.264h12.096l1.12 3.264H145.718Z" fill="#000"/>
  <path d="M178.999 66.125V62.669l-.224-.736v-6.048c0-1.173-.352-2.08-1.056-2.72-.704-.661-1.771-.992-3.2-.992-.96 0-1.909.15-2.848.448-.917.299-1.696.715-2.336 1.248l-1.568-2.912c.917-.704 2.005-1.227 3.264-1.568 1.28-.363 2.603-.544 3.968-.544 2.475 0 4.384.598 5.728 1.792 1.365 1.173 2.048 2.997 2.048 5.472v10.016h-3.776Zm-5.376.224c-1.28 0-2.4-.213-3.36-.64-.96-.448-1.707-1.056-2.24-1.824-.512-.789-.768-1.675-.768-2.656 0-.96.224-1.824.672-2.592.469-.768 1.227-1.376 2.272-1.824 1.045-.448 2.432-.672 4.16-.672h4.96v2.656h-4.672c-1.365 0-2.283.224-2.752.672-.469.427-.704.96-.704 1.6 0 .725.288 1.301.864 1.728.576.427 1.376.64 2.4.64.981 0 1.856-.224 2.624-.672.789-.448 1.355-1.109 1.696-1.984l.672 2.4c-.384 1.003-1.077 1.781-2.08 2.336-.981.555-2.229.832-3.744.832Z" fill="#000"/>
  <path d="M188.548 66.125V49.037h3.808v4.704l-.448-1.376c.512-1.152 1.312-2.027 2.4-2.624 1.109-.598 2.485-.896 4.128-.896v3.808c-.17-.043-.33-.064-.48-.064-.149-.021-.298-.032-.448-.032-1.514 0-2.72.448-3.616 1.344-.896.875-1.344 2.187-1.344 3.936v8.288h-4Z" fill="#000"/>
  <path d="M209.527 66.349c-1.877 0-3.328-.48-4.352-1.44-1.024-.981-1.536-2.421-1.536-4.32V45.261h4v15.232c0 .811.203 1.44.608 1.888.427.448 1.014.672 1.76.672.896 0 1.642-.234 2.24-.704l1.12 2.848c-.47.384-1.046.672-1.728.864-.683.192-1.387.288-2.112.288Zm-8.704-13.984v-3.2h11.392v3.2H200.823Z" fill="#000"/>
</svg>